<svg width="301" height="344" viewBox="0 0 301 344" fill="none" xmlns="http://www.w3.org/2000/svg">
<path d="M294.001 209.876C298.481 205.395 300.72 199.798 300.72 194.196C300.72 188.594 298.481 182.997 294.001 178.516C285.04 169.555 271.04 169.555 262.079 178.516L173.04 266.996L173.04 22.8359C173.04 10.5159 162.962 0.43789 150.642 0.43789C138.322 0.437891 128.244 10.5159 128.244 22.8359L128.244 266.996L39.2048 177.957C30.2439 168.996 16.2438 168.996 7.2828 177.957C-1.6781 186.918 -1.6781 200.918 7.2828 209.879L134.963 336.999C143.924 345.96 157.924 345.96 166.885 336.999L294.001 209.876Z" fill="#001C55"/>
</svg>
