<svg width="500" height="500" viewBox="0 0 500 500" fill="none" xmlns="http://www.w3.org/2000/svg">
<circle cx="250" cy="250" r="225" fill="url(#paint0_linear_11_456)"/>
<path d="M295.146 333.726C305.414 311.941 299.401 292.689 295.112 285.786C289.512 295.486 259.008 324.986 244.456 338.524L267.333 374.18C269.434 377.454 274.294 377.185 275.998 373.688C280.56 364.322 287.611 349.713 295.146 333.726Z" fill="#0090E1"/>
<path d="M157.67 253.976C171.402 234.191 191.082 229.772 199.205 230.036C193.605 239.736 183.309 280.903 178.86 300.274L136.542 298.29C132.657 298.108 130.46 293.764 132.637 290.54C138.467 281.906 147.593 268.495 157.67 253.976Z" fill="#0090E1"/>
<path d="M244.581 339.505L175.732 299.755C187.813 212.072 241.667 126.249 336.066 94.5671C338.882 93.6218 341.878 95.4107 342.39 98.3371C358.977 193.162 321.217 278.39 244.581 339.505Z" fill="#29BFFF"/>
<rect x="230.158" y="264.205" width="19" height="83" rx="5" transform="rotate(30 230.158 264.205)" fill="#0090E1"/>
<circle cx="284.818" cy="189.531" r="27" transform="rotate(30 284.818 189.531)" fill="white"/>
<rect x="185.884" y="350.939" width="9.28988" height="63.1517" rx="4.64494" transform="rotate(30 185.884 350.939)" fill="white"/>
<path d="M202.185 432.114C201.924 432.601 201.276 432.747 200.798 432.471C158.663 408.144 182.114 421.684 158.331 407.952C134.547 394.221 157.998 407.76 115.863 383.434C115.385 383.158 115.187 382.523 115.479 382.054C126.596 364.166 154.23 360.605 177.807 374.218C201.385 387.83 212.118 413.542 202.185 432.114Z" fill="white"/>
<path d="M243.347 450.837C242.483 453.46 239.357 454.268 236.966 452.888C218.713 442.35 229.563 448.614 217.057 441.394C204.552 434.174 215.401 440.437 197.149 429.899C194.757 428.519 193.894 425.407 195.734 423.348C203.887 414.217 218.249 412.059 230.057 418.877C241.865 425.694 247.177 439.211 243.347 450.837Z" fill="white"/>
<path d="M126.434 383.337C125.57 385.96 122.444 386.768 120.052 385.388C101.8 374.85 112.649 381.114 100.144 373.894C87.6384 366.674 98.4879 372.937 80.2353 362.399C77.8439 361.019 76.9808 357.907 78.8202 355.848C86.9739 346.717 101.336 344.559 113.144 351.377C124.952 358.194 130.264 371.711 126.434 383.337Z" fill="white"/>
<defs>
<linearGradient id="paint0_linear_11_456" x1="25" y1="25" x2="475" y2="475" gradientUnits="userSpaceOnUse">
<stop stop-color="#CCFCFF"/>
<stop offset="1" stop-color="#A3C8FF"/>
</linearGradient>
</defs>
</svg>
