<svg width="1588" height="1043" viewBox="0 0 1588 1043" fill="none" xmlns="http://www.w3.org/2000/svg">
<path d="M343.001 504.371C315.866 514.707 288.951 510.555 284.5 509.818L190.855 502.309C194.058 490.464 197.65 502.614 203.51 487.972C209.804 472.247 201.15 465.917 204.756 451.227C208.56 435.728 225.485 425.612 259.335 405.38C278.783 393.756 288.769 387.9 301.608 385.755C323.93 382.026 349.391 387.304 352.446 397.88C353.609 401.909 351.159 405.453 354.052 410.366C357.296 415.873 363.949 417.488 365.469 417.857C372.387 419.536 376.834 417.06 380.987 416.607C396.762 414.887 420.594 441.011 416.131 457.63C413.895 465.952 406.192 465.828 376.177 483.676C350.575 498.9 354.496 499.992 343.001 504.371Z" fill="#2F2E41"/>
<path d="M257.77 542.149L211.258 611.527L344.77 638.527L336.266 551.669L257.77 542.149Z" fill="#FFB6B6"/>
<path opacity="0.1" d="M257.77 542.149L211.258 611.527L344.77 638.527L336.266 551.669L257.77 542.149Z" fill="black"/>
<path d="M354.77 593.527L210.77 587.527L146.77 622.527L149.77 847.527L82.77 974.527L420.77 910.527L394.77 814.527L406.77 612.527L354.77 593.527Z" fill="#001C55"/>
<path d="M851.679 1030.63C856.276 1023.38 856.819 1014.43 853.131 1006.68L798.324 891.523C794.234 882.929 785.44 877.376 775.922 877.376H83.6682C74.4151 877.376 65.9966 882.466 61.6989 890.661L2.95337 1002.64C-1.10736 1010.38 -0.839966 1019.47 3.66791 1026.96C8.17578 1034.45 16.085 1038.94 24.8252 1038.98L830.632 1042.15H830.733C839.275 1042.15 847.1 1037.85 851.679 1030.63Z" fill="white"/>
<path d="M851.679 1030.63C856.276 1023.38 856.819 1014.43 853.131 1006.68L798.324 891.523C794.234 882.929 785.44 877.376 775.922 877.376H83.6682C74.4151 877.376 65.9966 882.466 61.6989 890.661L2.95337 1002.64C-1.10736 1010.38 -0.839966 1019.47 3.66791 1026.96C8.17578 1034.45 16.085 1038.94 24.8252 1038.98L830.632 1042.15H830.733C839.275 1042.15 847.1 1037.85 851.679 1030.63ZM775.922 879.98C784.441 879.98 792.311 884.951 795.973 892.642L850.779 1007.8C854.081 1014.73 853.595 1022.75 849.48 1029.24C845.382 1035.7 838.379 1039.55 830.732 1039.55H830.642L24.8353 1036.37C17.0127 1036.34 9.93347 1032.32 5.89899 1025.62C1.86414 1018.92 1.62506 1010.78 5.25897 1003.85L64.0046 891.869C67.8517 884.536 75.3861 879.98 83.6682 879.98H775.922Z" fill="#3F3D56"/>
<path d="M148.119 998.127L433.793 978.486C438.011 978.196 441.375 975.352 442.362 971.242C443.351 967.132 441.647 963.07 438.022 960.895L374.851 922.992C373.247 922.029 371.407 921.561 369.542 921.651L122.436 932.884C119.169 933.031 116.251 934.815 114.63 937.656C113.009 940.496 112.958 943.916 114.492 946.804L139.094 993.115C140.746 996.224 143.983 998.149 147.468 998.149C147.684 998.149 147.901 998.142 148.119 998.127Z" fill="#3F3D56"/>
<path d="M436.27 967.027L151.77 986.527L129.27 938.027L373.217 928.46L436.27 967.027Z" fill="white"/>
<path d="M296.27 565.519C249.054 565.519 210.778 527.243 210.778 480.027C210.778 432.811 249.054 394.535 296.27 394.535C343.486 394.535 381.762 432.811 381.762 480.027C381.762 527.243 343.486 565.519 296.27 565.519Z" fill="#FFB6B6"/>
<path d="M307.627 456.64C280.492 466.977 273.726 486.387 269.274 485.651C269.274 485.651 246.695 496.981 242.492 510.191C238.289 523.401 228.021 536.227 218.173 537.212C196.749 539.354 188.774 538.708 189.53 519.921C190.287 501.133 182.425 478.447 188.285 463.805C194.578 448.08 185.925 441.75 189.53 427.06C193.334 411.561 210.259 401.445 244.109 381.213C263.557 369.588 279.947 366.849 292.786 364.704C305.909 363.175 318.957 363.894 327.775 369.293C336.593 374.692 339.817 383.114 344.304 386.984C348.79 390.854 361.608 392.893 365.761 392.44C381.536 390.72 405.368 416.844 400.905 433.463C398.67 441.785 390.967 441.661 360.951 459.509C335.349 474.733 319.123 452.261 307.627 456.64Z" fill="#2F2E41"/>
<path d="M210.137 943.605C204.637 943.822 200.451 948.75 200.148 954.089C199.833 959.631 203.686 964.736 208.315 967.374C213.738 970.465 220.507 970.961 226.613 970.429C232.105 969.951 238.081 968.243 241.615 963.707C244.589 959.891 245.683 954.126 243.154 949.794C240.646 945.499 235.313 944.313 230.852 946.037C226.131 947.861 223.163 952.154 223.133 957.228C223.1 962.853 226.348 968.049 230.906 971.159C235.822 974.513 242.01 975.592 247.862 975.578C254.238 975.564 260.586 974.225 266.452 971.74C271.948 969.412 277.439 966.055 281.368 961.493C285.052 957.216 287.257 951.282 285.212 945.735C283.535 941.185 279.298 938.396 274.445 938.781C270.002 939.134 265.509 941.712 263.537 945.817C261.312 950.449 262.311 956.006 265.143 960.146C268.412 964.928 273.58 967.614 279.318 968.003C285.425 968.416 291.474 966.245 296.498 962.89C301.15 959.784 305.239 955.807 310.233 953.223C312.637 951.979 315.253 951.188 317.974 951.192C321.44 951.196 324.771 952.334 328.141 952.994C330.997 953.554 333.941 953.88 336.76 952.967C339.172 952.186 341.43 950.755 342.949 948.702C344.386 946.76 344.891 944.327 344.077 942.021C343.438 940.213 340.539 940.991 341.184 942.818C342.673 947.035 337.565 950.133 333.99 950.52C331.278 950.813 328.48 950.029 325.863 949.417C323.136 948.779 320.348 948.127 317.528 948.196C307.539 948.442 300.936 956.981 292.882 961.613C284.414 966.484 272.014 966.824 266.829 957.145C264.946 953.63 264.557 948.957 267.144 945.673C269.299 942.937 273.128 941.3 276.599 941.83C280.957 942.496 283.128 946.647 282.969 950.773C282.775 955.824 279.255 959.927 275.501 962.952C267.144 969.685 256.062 973.115 245.374 972.513C240.359 972.231 235.029 970.925 231.133 967.586C227.767 964.701 225.47 960.01 226.279 955.516C226.979 951.626 230.24 948.676 234.182 948.285C238.213 947.884 241.364 950.747 241.544 954.774C241.746 959.304 239.055 963.085 235.155 965.148C230.737 967.485 225.383 967.774 220.488 967.52C215.29 967.249 209.873 965.879 206.236 961.921C203.133 958.545 201.957 953.536 204.816 949.629C206.078 947.905 207.976 946.69 210.137 946.605C212.061 946.529 212.071 943.528 210.137 943.605Z" fill="#001C55"/>
<path d="M346.865 940.391L345.336 930.933L260.462 768.714C259.056 766.028 255.725 764.985 253.039 766.391C250.352 767.797 249.309 771.127 250.715 773.814L335.552 935.961L342.487 942.682C343.308 943.472 344.491 943.642 345.501 943.114C346.511 942.586 347.046 941.516 346.865 940.391Z" fill="#3F3D56"/>
<path d="M289.012 837.184C279.436 838.987 270.432 843.056 262.752 849.053L262.319 849.146L262.232 848.715L169.73 863.204L176.432 740.168L106.327 701.771L122.897 909.744C126.486 923.026 140.27 930.783 153.485 926.958L271.236 893.088L270.942 891.639L271.354 891.528C280.764 894.066 290.646 894.313 300.172 892.248C324.068 887.412 340.943 871.162 337.863 855.955C334.783 840.747 312.917 832.343 289.012 837.184Z" fill="#FFB6B6"/>
<path d="M225.77 644.527L146.77 622.527C146.77 622.527 105.27 653.027 100.27 686.027C99.6754 689.952 98.0258 872.773 99.77 877.527C112.692 912.746 183.77 856.527 183.77 856.527L225.77 644.527Z" fill="#001C55"/>
<path d="M568.435 973.116L576.625 966.097C577.844 965.051 579.327 964.358 580.912 964.094L763.395 933.68C767.56 932.985 770.637 929.977 771.425 925.829C772.212 921.681 770.453 917.754 766.832 915.581L701.73 876.52C699.554 875.215 696.994 874.804 694.517 875.363L463.143 927.637C458.645 928.652 455.643 932.287 455.496 936.896C455.348 941.506 458.112 945.325 462.537 946.627L559.277 975.08C560.195 975.35 561.131 975.482 562.06 975.482C564.369 975.482 566.628 974.665 568.435 973.116Z" fill="#3F3D56"/>
<path d="M656.314 746.277C647.269 749.899 639.223 755.635 632.849 763.005L632.443 763.18L632.274 762.774L544.327 794.897L450.424 642.855L398.512 675.028L507.39 849.623C513.482 861.959 528.507 866.901 540.732 860.589L649.698 804.564L649.129 803.2L649.511 803.011C659.235 803.68 668.978 802.009 677.923 798.139C700.432 788.768 713.841 769.558 707.875 755.235C701.909 740.911 678.83 736.899 656.314 746.277Z" fill="#FFB6B6"/>
<path d="M349.691 670.303L391.225 608.193C391.225 608.193 440.649 617.976 461.009 644.424C463.554 647.73 550.972 774.513 551.535 780.046C555.478 818.777 455.006 836.924 455.006 836.924L349.691 670.303Z" fill="#001C55"/>
<path d="M572.955 974.982L782.136 946.07C789.137 945.103 794.916 940.087 796.858 933.291L844.901 765.139C846.529 759.439 845.314 753.538 841.567 748.946C837.82 744.354 832.284 741.981 826.372 742.433L615.622 758.579C607.997 759.163 601.597 764.532 599.694 771.938L553.22 952.856C551.737 958.63 553.22 964.732 557.188 969.181C560.604 973.012 565.449 975.151 570.499 975.151C571.313 975.151 572.134 975.096 572.955 974.982Z" fill="#3F3D56"/>
<path d="M619.581 630.56C618.359 631.905 613.922 630.535 605.097 627.74C598.39 625.615 597.356 624.841 596.718 624.287C594.475 622.338 593.887 620.289 591.665 611.235C587.678 594.985 587.554 593.371 585.507 589.922C584.801 588.735 583.02 585.902 583.454 585.551C583.901 585.191 585.829 588.141 589.391 589.256C592.864 590.343 594.427 588.602 597.391 589.046C601.223 589.619 603.502 593.259 607.076 599.151C610.24 604.368 610.639 606.467 615.076 616.834C616.333 619.771 617.345 622.044 618.122 623.84C626.834 631.971 635.475 640.21 644.037 648.52C643.871 648.267 643.716 648.029 643.581 647.822C639.789 641.999 639.274 638.878 639.329 636.538C639.418 632.749 641.228 629.862 644.844 624.244C648.388 618.738 651.745 615.105 655.791 610.77C661.094 605.088 663.745 602.246 664.801 602.433C672.343 603.768 674.36 655.12 664.871 664.304C666.202 665.256 667.305 666.253 668.103 667.233C676.226 658.214 690.141 648.138 705.555 646.898C715.058 646.133 720.303 649.115 721.934 650.139C729.471 654.874 733.953 664.349 731.702 667.023C729.603 669.516 723.541 663.848 711.661 664.16C703.371 664.378 696.895 667.386 693.05 669.171C684.986 672.917 682.036 676.599 676.09 679.122C678.877 681.419 681.086 684.286 682.473 686.96C682.953 687.455 683.432 687.952 683.912 688.448C690.047 684.991 696.956 682.454 704.198 681.871C713.701 681.107 718.946 684.089 720.577 685.113C725.657 688.304 729.338 693.643 730.516 697.607C731.286 697.762 731.999 697.938 732.651 698.129C734.954 692.925 741.808 687.436 748.18 684.67C759.149 679.909 773.397 681.171 774.922 685.699C774.971 685.843 774.983 685.985 775.004 686.128C773.802 676.426 772.169 666.793 770.13 657.229C770.06 657.502 769.974 657.778 769.858 658.069C767.15 664.87 759.833 671.397 749.86 674.784C742.032 677.442 738.753 676.064 737.92 675.679C737.124 675.311 733.688 673.836 732.846 670.903C731.285 665.466 740.845 649.395 746.875 654.785C766.249 672.105 768.908 658.08 769.798 655.72C768.15 648.159 766.254 640.641 764.128 633.166C764.091 633.212 764.059 633.257 764.021 633.303C759.788 638.437 751.642 642.053 742.07 642.213C734.557 642.338 732.102 640.235 731.488 639.671C730.902 639.131 728.337 636.9 728.423 634.128C728.583 628.988 737.727 624.802 745.043 624.076C751.784 623.407 759.044 625.471 762.645 628.085C760.971 622.487 759.17 616.914 757.248 611.365C752.328 613.374 745.359 613.104 738.512 610.044C732.866 607.52 731.768 605.096 731.507 604.462C731.258 603.855 730.123 601.298 731.153 599.261C733.062 595.484 741.339 595.548 747.047 597.555C749.398 598.382 751.633 599.654 753.548 601.092C750.143 591.996 746.432 582.966 742.441 574.002L746.441 573.002C751.539 584.453 755.985 596.053 759.805 607.781C760.28 604.342 761.471 600.677 763.038 597.7C767.647 588.946 777.491 582.379 780.82 584.51C781.486 584.936 781.766 585.63 782.02 586.457C784.061 593.107 782.524 602.297 777.149 610.741C772.931 617.368 769.683 618.299 768.836 618.509C768.122 618.687 765.363 619.448 763.096 618.467C764.621 623.692 766.031 628.94 767.316 634.211C768.863 630.37 771.912 626.277 775.137 623.447C782.572 616.921 794.114 614.31 796.461 617.49C796.93 618.126 796.944 618.875 796.885 619.737C796.412 626.678 791.689 634.71 783.65 640.673C777.34 645.353 773.974 645.059 773.108 644.953C772.599 644.89 771.059 644.737 769.575 644.066C770.953 650.471 772.157 656.906 773.198 663.369C775.28 656.139 782.352 647.12 789.027 649.989C800.872 655.081 814.795 647.26 816.327 650.68C816.726 651.57 816.396 652.488 816.014 653.483C812.946 661.496 804.471 669.259 792.834 673.382C783.7 676.617 779.836 675.053 778.854 674.615C778.204 674.325 776.056 673.427 774.456 671.762C775.606 680.067 776.488 688.413 777.109 696.796C779.578 691.404 786.534 685.724 793.046 682.795C804.468 677.657 819.407 678.783 821.067 683.504C821.398 684.448 821.137 685.359 820.745 686.381C817.595 694.605 808.897 702.573 796.953 706.805C787.578 710.126 783.612 708.521 782.604 708.071C781.868 707.742 779.267 706.656 777.609 704.592C777.821 708.468 777.985 712.35 778.089 716.239C778.118 717.347 778.136 718.454 778.157 719.562C778.292 719.78 778.409 720.002 778.487 720.235C778.807 721.185 778.589 722.099 778.214 723.098C778.222 723.802 778.226 724.505 778.231 725.208C780.321 723.314 782.814 720.466 785.812 716.407C788.518 712.744 791.087 715.432 792.738 718.55C795.325 717.974 797.793 718.33 799.734 720.143C812.75 732.302 827.349 725.852 827.555 729.477C827.615 730.523 827.054 731.355 826.348 732.257C820.665 739.517 809.508 744.813 796.254 745.372C785.851 745.81 782.377 742.983 781.507 742.222C781.201 741.955 780.516 741.379 779.774 740.568C779.178 741.044 778.599 741.475 778.017 741.869C777.788 748.829 777.379 755.781 776.772 762.72C777.265 762.765 777.737 762.846 778.089 762.881C783.128 763.395 784.825 756.597 792.437 754.113C794.965 753.288 799.835 752.388 802.401 754.113C802.771 754.361 804.032 755.296 805.988 756.106C807.145 756.585 808.028 756.807 808.38 756.903C811.503 757.757 814.395 760.101 816.351 761.686C820.027 764.665 821.865 766.154 822.728 768.86C823 769.711 823.764 772.107 822.728 774.44C822.239 775.542 821.103 777.182 816.75 778.824C814.162 779.8 806.615 782.647 797.619 779.621C795.57 778.932 797.134 779.179 789.249 775.237C783.045 772.136 779.417 770.653 778.886 767.664C778.699 766.614 778.887 765.332 778.089 764.874C777.645 764.62 777.108 764.743 776.573 764.936C776.051 770.515 775.399 776.085 774.609 781.644H781.707C791.133 781.644 799.589 786.89 803.775 795.335L830.327 848.903C832.003 852.284 832.89 856.066 832.89 859.841V997.584C832.89 1011.16 821.841 1022.21 808.26 1022.21H746.283C732.702 1022.21 721.653 1011.16 721.653 997.584V870.749C721.653 867.657 722.225 864.63 723.355 861.751L748.661 797.275C751.73 789.456 758.378 783.924 766.324 782.212C763.775 779.19 761.223 776.171 758.65 773.162C755.411 774.725 751.847 776.008 748.016 776.909C737.88 779.291 733.937 777.167 732.939 776.583C731.987 776.026 727.857 773.76 727.157 769.981C727.082 769.576 727.053 769.166 727.059 768.754C716.676 777.193 711.261 781.353 707.304 779.966C703.902 778.774 701.96 774.866 700.848 771.359C699.686 771.52 698.454 771.685 697.142 771.861C682.922 773.759 675.757 774.64 673.016 771.272C669.222 766.611 672.823 757.623 673.815 755.146C675.972 749.762 679.29 746.486 681.352 744.493C684.028 741.905 691.657 734.529 703.667 733.546C706.278 733.332 708.623 733.496 711.013 733.996C711.845 733.234 712.724 732.488 713.691 731.779C715.535 730.429 717.355 729.429 719.315 728.647C716.309 725.354 713.295 722.071 710.266 718.801C709.787 719.019 709.332 719.23 708.914 719.424C698.993 724.032 696.813 728.544 687.272 730.919C682.944 731.997 678.043 733.217 676.83 731.383C674.675 728.124 683.823 714.717 697.959 705.645C697.006 704.636 696.051 703.63 695.095 702.624C693.803 703.166 692.664 703.694 691.693 704.145C681.772 708.753 679.593 713.265 670.052 715.64C665.724 716.718 660.823 717.938 659.61 716.104C657.687 713.196 664.763 702.206 676.35 693.427C673.167 692.416 668.947 691.296 663.481 691.439C655.191 691.657 648.715 694.665 644.871 696.45C634.95 701.058 632.77 705.57 623.23 707.945C618.901 709.023 614.001 710.243 612.788 708.409C609.584 703.564 631.345 676.272 657.376 674.177C659.396 674.014 661.213 674.028 662.854 674.149C663.081 673.773 663.328 673.387 663.587 672.995C654.78 673.278 637.579 670.76 622.939 681.038C618.718 684.002 610.517 690.974 596.793 696.702C592.406 698.533 590.2 699.433 589.593 698.681C587.418 695.99 605.5 673.843 630.939 662.933C641.025 658.607 647.256 658.198 651.689 658.853C651.006 658.075 650.34 657.271 649.699 656.464C639.793 646.749 629.763 637.135 619.642 627.651C620.132 629.166 620.116 629.972 619.581 630.56ZM746.699 751.476C757.887 747.854 771.435 749.799 774.968 753.92C775.466 750.268 775.899 746.61 776.255 742.946C771.158 745.792 765.84 746.555 755.75 747.902C751.453 748.476 747.81 748.953 744.729 749.252C744.315 750.374 743.874 751.383 743.362 752.349C743.302 752.461 743.239 752.568 743.178 752.678L743.268 752.78C744.416 752.282 745.568 751.842 746.699 751.476ZM776.425 702.406C776.106 701.347 776.099 700.22 776.343 699.058C775.995 694.847 775.56 690.65 775.046 686.465C775.059 687.105 774.856 687.747 774.579 688.441C771.469 696.253 763.064 703.751 751.608 707.641C749.471 708.366 747.638 708.824 746.059 709.104C746.754 710.314 747.286 711.494 747.639 712.585C751.544 709.447 756.572 707.166 762.276 709.586C763.828 710.245 764.749 712.655 765.55 715.536C770.819 715.627 775.223 716.727 777.32 718.587C777.308 717.811 777.312 717.037 777.292 716.26C777.173 711.831 776.955 707.416 776.648 703.015C776.564 702.818 776.488 702.616 776.425 702.406ZM777.305 725.186C777.078 725.651 776.829 726.114 776.571 726.575C776.805 726.403 777.045 726.217 777.291 726.016C777.298 725.74 777.3 725.463 777.305 725.186ZM768.308 781.872C768.921 781.791 769.54 781.732 770.165 781.697C771.608 774.536 772.94 767.38 774.055 760.21C771.123 764.863 766.338 769.122 760.243 772.352C762.948 775.518 765.63 778.693 768.308 781.872ZM721.086 728.013C724.901 726.788 729.379 726.201 735.575 725.481C737.145 723.299 738.764 721.691 739.961 720.534C740.609 719.908 741.604 718.665 742.893 717.21C739.553 716.138 734.568 714.228 727.524 714.413C721.122 714.582 715.809 716.412 711.948 718.06C715.006 721.365 718.05 724.684 721.086 728.013ZM699.462 704.708C703.211 702.442 707.278 700.502 711.558 699.139C711.142 699.135 710.735 699.123 710.303 699.134C704.995 699.274 700.436 700.557 696.83 701.931C697.708 702.856 698.586 703.78 699.462 704.708Z" fill="#CCCCCC"/>
<path d="M398.402 313.387L392.623 313.387L392.623 216.507L257.809 216.507L257.809 210.742L392.623 210.742L392.623 99.7108L288.512 99.7108C290.038 97.7697 291.609 95.8531 293.224 93.9613L392.623 93.9613L392.623 20.6268C394.535 19.8118 396.461 19.0265 398.402 18.2856L398.402 93.9613L511.686 93.9613L511.686 -1.10973e-05C513.627 0.0889088 515.539 0.222283 517.465 0.385243L517.465 93.9613L607.841 93.9613L607.841 23.8572C609.782 24.7166 611.693 25.6206 613.59 26.569L613.59 93.9613L689.562 93.9613L689.562 99.7108L613.59 99.7108L613.59 210.742L689.562 210.742L689.562 216.507L613.59 216.507L613.59 313.387L607.841 313.387L607.841 216.507C595.972 216.504 584.219 218.84 573.253 223.381C562.287 227.922 552.323 234.579 543.93 242.972C535.538 251.364 528.881 261.328 524.34 272.294C519.799 283.26 517.463 295.013 517.465 306.882L517.465 313.387L511.686 313.387L511.686 216.507L398.402 216.507L398.402 313.387ZM607.841 210.742L607.841 99.7108L517.465 99.7108L517.465 210.742L607.841 210.742ZM511.686 210.742L511.686 99.7108L509.419 99.7108C494.839 99.7118 480.402 102.584 466.933 108.165C453.463 113.745 441.224 121.924 430.915 132.234C420.606 142.544 412.429 154.784 406.851 168.255C401.272 181.725 398.401 196.163 398.402 210.742L511.686 210.742Z" fill="#CCCCCC"/>
<path opacity="0.2" d="M1061.1 449.511C1061.1 336.635 1156.5 274.541 1265.48 245.131C1405.2 207.425 1507.53 283.725 1469.86 449.511C1461.32 487.085 1440.9 530.969 1415.63 568.507H1215.07C1148.08 524.891 1061.1 537.123 1061.1 449.511Z" fill="#001C55"/>
<path opacity="0.5" d="M1164.47 148.507V466.507C1164.47 494.629 1187.35 517.507 1215.47 517.507H1533.47C1561.59 517.507 1584.47 494.629 1584.47 466.507V148.507C1584.47 120.385 1561.59 97.507 1533.47 97.507H1215.47C1187.35 97.507 1164.47 120.385 1164.47 148.507ZM1215.47 511.507C1190.62 511.507 1170.47 491.36 1170.47 466.507V306.184C1170.47 194.249 1261.21 103.507 1373.15 103.507H1533.47C1558.32 103.507 1578.47 123.654 1578.47 148.507V466.507C1578.47 491.36 1558.32 511.507 1533.47 511.507H1215.47Z" fill="#001C55"/>
<path opacity="0.2" d="M1412.14 763.478H1514.8C1517.39 763.478 1519.49 761.372 1519.49 758.784C1519.49 756.196 1517.39 754.091 1514.8 754.091H1412.14C1409.55 754.091 1407.45 756.196 1407.45 758.784C1407.45 761.372 1409.55 763.478 1412.14 763.478Z" fill="#001C55"/>
<path d="M855.025 106.894H957.687C960.275 106.894 962.381 104.788 962.381 102.2C962.381 99.6119 960.275 97.507 957.687 97.507H855.025C852.436 97.507 850.331 99.6119 850.331 102.2C850.331 104.788 852.436 106.894 855.025 106.894Z" fill="#CCCCCC"/>
<path d="M855.025 206.985H957.687C960.275 206.985 962.381 204.879 962.381 202.291C962.381 199.703 960.275 197.598 957.687 197.598H855.025C852.436 197.598 850.331 199.703 850.331 202.291C850.331 204.879 852.436 206.985 855.025 206.985Z" fill="#CCCCCC"/>
<path d="M799.935 156.973H1012.78C1015.36 156.973 1017.47 154.867 1017.47 152.278C1017.47 149.69 1015.36 147.585 1012.78 147.585H799.935C797.347 147.585 795.242 149.69 795.242 152.278C795.242 154.867 797.347 156.973 799.935 156.973Z" fill="#CCCCCC"/>
<path opacity="0.5" d="M1095.52 847.507H1539.42C1565.92 847.507 1587.47 825.953 1587.47 799.46V637.554C1587.47 611.061 1565.92 589.507 1539.42 589.507H1095.52C1069.02 589.507 1047.47 611.061 1047.47 637.554V799.46C1047.47 825.953 1069.02 847.507 1095.52 847.507ZM1539.42 595.507C1562.61 595.507 1581.47 614.368 1581.47 637.554V799.46C1581.47 822.646 1562.61 841.507 1539.42 841.507H1095.52C1072.33 841.507 1053.47 822.646 1053.47 799.46V637.554C1053.47 614.368 1072.33 595.507 1095.52 595.507H1539.42Z" fill="#001C55"/>
<path opacity="0.5" d="M925.084 568.507H978.659C1069.54 568.507 1143.47 494.573 1143.47 403.697V350.122C1143.47 331.586 1128.39 316.507 1109.86 316.507H925.084C906.549 316.507 891.47 331.586 891.47 350.122V534.892C891.47 553.428 906.549 568.507 925.084 568.507ZM1109.86 322.507C1125.11 322.507 1137.47 334.87 1137.47 350.121V403.697C1137.47 491.405 1066.37 562.507 978.661 562.507H925.084C909.833 562.507 897.47 550.144 897.47 534.893V417.208C897.47 364.906 939.869 322.507 992.171 322.507H1109.86Z" fill="#001C55"/>
<path opacity="0.2" d="M1268.48 662.891C1257.07 641.142 1242.61 625.451 1226.67 613.507H1414.52C1366.17 682.569 1302.05 726.893 1268.48 662.891Z" fill="#001C55"/>
</svg>
