<svg width="160" height="160" viewBox="0 0 160 160" fill="none" xmlns="http://www.w3.org/2000/svg">
<rect width="160" height="160" rx="80" fill="url(#paint0_linear_594_1811)"/>
<g filter="url(#filter0_d_594_1811)">
<path fill-rule="evenodd" clip-rule="evenodd" d="M79 26.9556C78.6059 25.8137 77.5842 25 76.3859 25C74.8463 25 73.5982 26.3431 73.5982 28V44.9053C74.426 44.8355 75.2627 44.8 76.1071 44.8C77.0823 44.8 78.0473 44.8474 79 44.9402V26.9556ZM79 52.5726C78.3823 52.5245 77.7584 52.5001 77.1293 52.5001C63.0164 52.5001 51.5757 64.8122 51.5757 80.0001C51.5757 95.1879 63.0164 107.5 77.1293 107.5C77.7584 107.5 78.3823 107.476 79 107.427V99.3863C78.3816 99.4616 77.7572 99.5001 77.1293 99.5001C67.9777 99.5001 59.5757 91.3328 59.5757 80.0001C59.5757 68.6673 67.9777 60.5001 77.1293 60.5001C77.7572 60.5001 78.3816 60.5385 79 60.6138V52.5726ZM79 112.86C78.0473 112.953 77.0823 113 76.1071 113C75.2627 113 74.426 112.964 73.5982 112.895L73.5982 132C73.5982 133.657 74.8463 135 76.3859 135C77.5842 135 78.6059 134.186 79 133.044V112.86ZM45.5893 83.3001H27.7877C26.2481 83.3001 25 81.9569 25 80.3001C25 78.6432 26.2481 77.3001 27.7877 77.3001H45.5407C45.4759 78.1909 45.4429 79.0913 45.4429 80.0001C45.4429 81.1133 45.4924 82.2141 45.5893 83.3001ZM59.7902 49.6659C60.6861 49.1093 61.5967 48.6051 62.519 48.1524L54.6404 33.4667C53.8706 32.0318 52.1657 31.5402 50.8323 32.3686C49.499 33.1971 49.0422 35.0318 49.812 36.4667L57.6664 51.1071C58.3508 50.6013 59.0589 50.1203 59.7902 49.6659ZM51.269 99.2313L35.8523 108.81C34.519 109.639 32.8141 109.147 32.0443 107.712C31.2745 106.277 31.7313 104.442 33.0647 103.614L48.4393 94.0613C48.797 94.8676 49.1868 95.6652 49.609 96.4522C50.1262 97.4163 50.6806 98.343 51.269 99.2313ZM63.4597 110.154L54.5588 126.745C53.789 128.18 52.0841 128.672 50.7508 127.843C49.4175 127.015 48.9607 125.18 49.7305 123.745L58.607 107.2C59.2915 107.705 59.9996 108.187 60.7309 108.641C61.6267 109.198 62.5374 109.702 63.4597 110.154ZM47.5521 66.9134L32.1354 57.3346C30.802 56.5061 30.3452 54.6714 31.115 53.2365C31.8848 51.8016 33.5897 51.31 34.923 52.1384L50.2977 61.6911C49.8276 62.4277 49.3807 63.1897 48.9585 63.9767C48.4412 64.9408 47.9727 65.9208 47.5521 66.9134Z" fill="#FFA800"/>
<path fill-rule="evenodd" clip-rule="evenodd" d="M81 133.415C81.5055 134.358 82.5009 135 83.6461 135C85.303 135 86.6461 133.657 86.6461 132V113.238L96.4353 128.433C97.3327 129.826 99.2531 130.337 100.725 129.576C102.196 128.815 102.662 127.068 101.764 125.676L87.3701 103.333C87.173 103.027 86.9264 102.764 86.6461 102.547V86.1151L99.512 92.7717L113.531 114.532C114.428 115.924 116.349 116.436 117.82 115.675C119.292 114.914 119.757 113.167 118.86 111.774L110.17 98.2861L127.616 107.313C129.088 108.074 131.008 107.562 131.906 106.169C132.803 104.776 132.337 103.03 130.866 102.269L113.166 93.111H130.876C132.533 93.111 133.876 91.7678 133.876 90.111C133.876 88.4541 132.533 87.111 130.876 87.111L101.588 87.111L101.569 87.111L88.2378 80.2135L102.774 72.6927L132 72.6927C133.657 72.6927 135 71.3495 135 69.6927C135 68.0358 133.657 66.6927 132 66.6927L114.371 66.6927L131.817 57.6662C133.288 56.9048 133.754 55.1585 132.856 53.7657C131.959 52.3729 130.039 51.861 128.567 52.6223L109.928 62.2659L119.128 47.9864C120.025 46.5935 119.56 44.8472 118.088 44.0859C116.617 43.3245 114.696 43.8364 113.799 45.2292L99.4049 67.5715C99.3623 67.6376 99.3228 67.7044 99.2864 67.7719L86.6461 74.3119V56.8388L100.665 35.0791C101.562 33.6863 101.097 31.9399 99.6253 31.1786C98.1538 30.4172 96.2334 30.9291 95.3361 32.3219L86.6461 45.8102V28C86.6461 26.3431 85.303 25 83.6461 25C82.5009 25 81.5055 25.6417 81 26.5852V133.415Z" fill="#83CDFF"/>
</g>
<defs>
<filter id="filter0_d_594_1811" x="21" y="23" width="118" height="118" filterUnits="userSpaceOnUse" color-interpolation-filters="sRGB">
<feFlood flood-opacity="0" result="BackgroundImageFix"/>
<feColorMatrix in="SourceAlpha" type="matrix" values="0 0 0 0 0 0 0 0 0 0 0 0 0 0 0 0 0 0 127 0" result="hardAlpha"/>
<feOffset dy="2"/>
<feGaussianBlur stdDeviation="2"/>
<feColorMatrix type="matrix" values="0 0 0 0 0 0 0 0 0 0 0 0 0 0 0 0 0 0 0.5 0"/>
<feBlend mode="normal" in2="BackgroundImageFix" result="effect1_dropShadow_594_1811"/>
<feBlend mode="normal" in="SourceGraphic" in2="effect1_dropShadow_594_1811" result="shape"/>
</filter>
<linearGradient id="paint0_linear_594_1811" x1="159.999" y1="-1.91674e-10" x2="159.999" y2="160" gradientUnits="userSpaceOnUse">
<stop stop-color="#007DD0"/>
<stop offset="1" stop-color="#00243C"/>
</linearGradient>
</defs>
</svg>
